<?xml version="1.0" encoding="UTF-8" standalone="no"?>
<svg
   xmlns:dc="http://purl.org/dc/elements/1.1/"
   xmlns:cc="http://creativecommons.org/ns#"
   xmlns:rdf="http://www.w3.org/1999/02/22-rdf-syntax-ns#"
   xmlns:svg="http://www.w3.org/2000/svg"
   xmlns="http://www.w3.org/2000/svg"
   viewBox="0 0 1122.52 793.70667"
   height="793.70667"
   width="1122.52"
   xml:space="preserve"
   id="svg2"
   version="1.1"><metadata
     id="metadata8"><rdf:RDF><cc:Work
         rdf:about=""><dc:format>image/svg+xml</dc:format><dc:type
           rdf:resource="http://purl.org/dc/dcmitype/StillImage" /></cc:Work></rdf:RDF></metadata><defs
     id="defs6"><clipPath
       id="clipPath18"
       clipPathUnits="userSpaceOnUse"><path
         id="path16"
         d="M 0,595.28 H 841.89 V 0 H 0 Z" /></clipPath></defs><g
     transform="matrix(1.3333333,0,0,-1.3333333,0,793.70667)"
     id="g10"><g
       id="g12"><g
         clip-path="url(#clipPath18)"
         id="g14"><g
           transform="translate(633.1614,345.6529)"
           id="g20"><path
             id="path22"
             style="fill:#54d2c3;fill-opacity:1;fill-rule:nonzero;stroke:none"
             d="m 0,0 c 0,7.649 0,13.226 -0.699,16.697 -3.48,44.531 -27.834,77.925 -71.665,99.508 -43.832,22.257 -96.72,33.394 -159.338,33.394 -68.885,0 -127.333,-14.608 -155.159,-50.108 -25.054,-28.525 -37.572,-84.176 -37.572,-147.492 0,-50.109 8.349,-101.598 22.956,-137.772 6.923,-19.687 15.28,-36.142 24.774,-49.364 10.496,-14.617 32.737,-13.721 42.753,1.23 7.955,11.876 13.938,25.613 18.159,39.115 10.561,33.781 17.69,68.631 21.275,103.841 4.631,45.489 -1.46,89.144 35.334,123.603 20.675,19.364 47.933,21.722 74.95,20.187 5.606,-0.317 11.212,-0.637 16.816,-1.002 5.424,-0.353 10.595,0.724 15.577,2.756 5.635,2.297 11.537,2.574 17.4,1.851 8.022,-0.989 13.31,-8.544 12.828,-16.612 -0.19,-3.171 0.164,-6.115 1.204,-9.183 2.902,-8.555 3.436,-17.437 2.738,-26.403 -0.283,-3.636 -0.621,-7.268 -1.112,-10.886 0.175,12.912 1.465,25.908 -3.971,38.2 1.204,-6.98 2.624,-17.504 -0.448,-30.864 0.297,9.119 -1.1,27.359 -1.287,27.399 -0.509,-2.032 -1.404,-23.477 -7.484,-32.151 1.773,8.637 3.368,18.804 5.016,26.828 -4.757,-10.276 -4.879,-14.544 -7.205,-19.574 0.6,2.313 0.612,7.346 1.253,9.814 -3.443,-2.001 -6.725,-17.773 -8.576,-22.284 1.497,5.798 3.925,17.696 3.644,17.846 -2.193,-2.949 -4.387,-5.896 -6.36,-9.106 0.242,0.981 0.448,3.231 0.308,3.374 -1.057,-0.914 -2.221,-1.733 -3.153,-2.761 -4.012,-4.423 -7.905,-8.954 -11.937,-13.359 -5.395,-5.894 -11.095,-11.526 -16.268,-17.607 -5.889,-6.921 -7.481,-15.377 -7.204,-24.223 0.451,-14.332 5.133,-27.605 10.822,-40.512 4.764,-10.809 18.319,-32.317 42.208,-29.616 C -51.489,-114.116 0,-80.705 0,0" /></g></g></g></g></svg>